<svg xmlns="http://www.w3.org/2000/svg" width="35" height="29" viewBox="0 0 35 29" fill="none">
  <path d="M9.85785 8.66425H25.3631V10.2148H9.85785V8.66425ZM9.85785 14.8664H20.7115V13.3158H9.85785V14.8664ZM34.6663 11.7653C34.6893 13.463 34.3007 15.1411 33.5339 16.6559C32.767 18.1707 31.6446 19.4773 30.2628 20.4638L17.6105 28.8211V22.619H11.4084C8.5298 22.619 5.76912 21.4755 3.73366 19.44C1.6982 17.4046 0.554687 14.6439 0.554688 11.7653C0.554688 8.88673 1.6982 6.12605 3.73366 4.09059C5.76912 2.05513 8.5298 0.911621 11.4084 0.911621H23.8126C26.6912 0.911621 29.4518 2.05513 31.4873 4.09059C33.5228 6.12605 34.6663 8.88673 34.6663 11.7653ZM31.5652 11.7653C31.5652 9.70918 30.7484 7.73727 29.2945 6.28337C27.8406 4.82947 25.8687 4.01267 23.8126 4.01267H11.4084C9.35225 4.01267 7.38034 4.82947 5.92643 6.28337C4.47253 7.73727 3.65574 9.70918 3.65574 11.7653C3.65574 13.8214 4.47253 15.7933 5.92643 17.2472C7.38034 18.7011 9.35225 19.5179 11.4084 19.5179H20.7115V23.0531L28.4642 17.9674C29.4466 17.2639 30.2425 16.3313 30.7829 15.2505C31.3233 14.1697 31.5919 12.9734 31.5652 11.7653Z" fill="#6A6A6A"/>
</svg>