<svg xmlns="http://www.w3.org/2000/svg" width="13" height="13" viewBox="0 0 13 13" fill="none">
  <path fill-rule="evenodd" clip-rule="evenodd" d="M0.849609 2.7832C0.849609 1.67859 1.74512 0.783203 2.84961 0.783203H10.9463C12.0508 0.783203 12.9463 1.67859 12.9463 2.7832V10.8799C12.9463 11.9845 12.0508 12.8799 10.9463 12.8799H2.84961C1.74512 12.8799 0.849609 11.9845 0.849609 10.8799V2.7832ZM7.12207 10.1089C6.69141 10.1555 6.20996 10.1232 6.01953 9.98682C5.83594 9.85107 5.70898 9.67053 5.6377 9.44507C5.5957 9.31201 5.57227 9.16626 5.56738 9.00781C5.56348 8.89783 5.56836 8.78186 5.58203 8.65979L6.32812 5.07275L7.11523 5.16235L6.71875 8.64087C6.68555 8.93298 6.72559 9.13977 6.83789 9.26135C6.95215 9.37695 7.10449 9.44556 7.29492 9.46729C7.36523 9.47534 7.43066 9.47961 7.49121 9.48022C7.5332 9.48071 7.57324 9.47925 7.61133 9.47607C7.70801 9.46912 7.80371 9.45874 7.89551 9.44507C7.89551 9.44507 7.87988 9.65564 7.80957 9.76392C7.73145 9.88513 7.51562 9.98682 7.51562 9.98682C7.51562 9.98682 7.26855 10.0931 7.12207 10.1089ZM6.87891 4.54626C7.19629 4.54626 7.4541 4.2887 7.4541 3.97107C7.4541 3.65344 7.19629 3.39587 6.87891 3.39587C6.56152 3.39587 6.30371 3.65344 6.30371 3.97107C6.30371 4.12915 6.36719 4.27234 6.4707 4.37622C6.5752 4.4812 6.71973 4.54626 6.87891 4.54626Z" fill="#666666"/>
</svg>