<svg xmlns="http://www.w3.org/2000/svg" width="58" height="15" viewBox="0 0 58 15" fill="none">
  <path fill-rule="evenodd" clip-rule="evenodd" d="M43.7576 1.45678C42.9854 2.22899 42.9854 3.47185 42.9854 5.95755V9.47288C42.9854 11.9586 42.9854 13.2014 43.7576 13.9736C44.5298 14.7459 45.7726 14.7459 48.2583 14.7459H51.7737C54.2594 14.7459 55.5022 14.7459 56.2744 13.9736C57.0466 13.2014 57.0466 11.9586 57.0466 9.47288V5.95755C57.0466 3.47185 57.0466 2.22899 56.2744 1.45678C55.5022 0.68457 54.2594 0.68457 51.7737 0.68457H48.2583C45.7726 0.68457 44.5298 0.68457 43.7576 1.45678ZM46.4949 5.08941C45.916 5.08941 45.4461 4.61472 45.4461 4.02947C45.4461 3.44422 45.916 2.96953 46.4949 2.96953C47.0739 2.96953 47.5437 3.44422 47.5437 4.02947C47.5437 4.61472 47.0745 5.08941 46.4949 5.08941ZM45.5959 12.4609V5.85131H47.3939V12.4609H45.5959ZM52.7879 12.4609H54.5859V8.39961C54.5859 5.24323 51.2278 5.358 50.3906 6.91185V5.85131H48.5926V12.4609H50.3906V9.09362C50.3906 7.2231 52.7879 7.06988 52.7879 9.09362V12.4609Z" fill="#0A66C2"/>
  <path d="M6.61048 11.0888V12.6291H1.78547V11.0888H6.61048ZM2.42398 3.0449V12.6291H0.449219V3.0449H2.42398Z" fill="#0A66C2"/>
  <path d="M10.0297 5.50677V12.6291H8.12736V5.50677H10.0297ZM8.00887 3.6505C8.00887 3.37403 8.10541 3.14584 8.2985 2.96591C8.49159 2.78599 8.7505 2.69603 9.07524 2.69603C9.39559 2.69603 9.65231 2.78599 9.8454 2.96591C10.0429 3.14584 10.1416 3.37403 10.1416 3.6505C10.1416 3.92696 10.0429 4.15516 9.8454 4.33508C9.65231 4.515 9.39559 4.60497 9.07524 4.60497C8.7505 4.60497 8.49159 4.515 8.2985 4.33508C8.10541 4.15516 8.00887 3.92696 8.00887 3.6505Z" fill="#0A66C2"/>
  <path d="M13.8571 7.02734V12.6291H11.9613V5.50677H13.7386L13.8571 7.02734ZM13.5806 8.81779H13.0672C13.0672 8.29119 13.1352 7.81725 13.2712 7.39596C13.4073 6.97029 13.5981 6.60825 13.8439 6.30984C14.0896 6.00705 14.3815 5.77666 14.7194 5.61868C15.0617 5.45631 15.4435 5.37512 15.8647 5.37512C16.1983 5.37512 16.5032 5.4234 16.7797 5.51994C17.0562 5.61648 17.2931 5.77008 17.4906 5.98072C17.6925 6.19136 17.8461 6.47002 17.9514 6.8167C18.0611 7.16338 18.116 7.58686 18.116 8.08713V12.6291H16.207V8.08055C16.207 7.76459 16.1631 7.51884 16.0754 7.3433C15.9876 7.16777 15.8582 7.04489 15.687 6.97468C15.5202 6.90008 15.314 6.86278 15.0682 6.86278C14.8137 6.86278 14.5921 6.91324 14.4034 7.01418C14.2191 7.11511 14.0655 7.25554 13.9426 7.43546C13.8241 7.61099 13.7342 7.81725 13.6728 8.05422C13.6113 8.29119 13.5806 8.54571 13.5806 8.81779Z" fill="#0A66C2"/>
  <path d="M21.8577 2.51172V12.6291H19.962V2.51172H21.8577ZM26.347 5.50677L23.2532 9.03502L21.5944 10.7136L20.9033 9.34439L22.2198 7.67243L24.0695 5.50677H26.347ZM24.3789 12.6291L22.2724 9.33781L23.5824 8.19245L26.5643 12.6291H24.3789Z" fill="#0A66C2"/>
  <path d="M30.7142 12.7607C30.1612 12.7607 29.6653 12.673 29.2265 12.4974C28.7877 12.3175 28.4147 12.0696 28.1075 11.7536C27.8047 11.4376 27.5721 11.0712 27.4097 10.6543C27.2474 10.233 27.1662 9.78542 27.1662 9.31148V9.04818C27.1662 8.50841 27.243 8.01472 27.3966 7.56711C27.5501 7.1195 27.7696 6.73113 28.0548 6.402C28.3444 6.07287 28.6955 5.82054 29.108 5.64501C29.5205 5.46508 29.9857 5.37512 30.5035 5.37512C31.0082 5.37512 31.4558 5.4585 31.8464 5.62526C32.2369 5.79202 32.5638 6.02899 32.8271 6.33617C33.0948 6.64336 33.2967 7.01198 33.4327 7.44204C33.5688 7.86771 33.6368 8.34165 33.6368 8.86387V9.65377H27.9758V8.38993H31.7739V8.24511C31.7739 7.98181 31.7257 7.74703 31.6291 7.54078C31.537 7.33014 31.3965 7.16338 31.2078 7.04051C31.0191 6.91763 30.7778 6.85619 30.4838 6.85619C30.2336 6.85619 30.0186 6.91105 29.8387 7.02076C29.6588 7.13047 29.5117 7.28406 29.3976 7.48154C29.2879 7.67901 29.2046 7.91159 29.1475 8.17929C29.0949 8.44259 29.0685 8.73222 29.0685 9.04818V9.31148C29.0685 9.59672 29.108 9.86003 29.187 10.1014C29.2704 10.3427 29.3867 10.5512 29.5359 10.7267C29.6895 10.9023 29.8738 11.0383 30.0888 11.1348C30.3082 11.2314 30.5562 11.2797 30.8326 11.2797C31.1749 11.2797 31.4931 11.2138 31.7871 11.0822C32.0855 10.9461 32.3422 10.7421 32.5573 10.47L33.4788 11.4706C33.3296 11.6856 33.1256 11.8918 32.8666 12.0893C32.6121 12.2868 32.3049 12.4492 31.9451 12.5764C31.5852 12.6993 31.1749 12.7607 30.7142 12.7607Z" fill="#0A66C2"/>
  <path d="M39.327 11.0756V2.5183H41.2359V12.6291H39.5179L39.327 11.0756ZM34.8246 9.1535V9.01527C34.8246 8.47111 34.886 7.97742 35.0089 7.5342C35.1317 7.08658 35.3117 6.7026 35.5486 6.38225C35.7856 6.0619 36.0774 5.81396 36.4241 5.63842C36.7708 5.46289 37.1657 5.37512 37.609 5.37512C38.0259 5.37512 38.3901 5.46289 38.7017 5.63842C39.0176 5.81396 39.2853 6.0641 39.5047 6.38883C39.7285 6.70918 39.9085 7.08878 40.0445 7.52761C40.1805 7.96206 40.2793 8.4382 40.3407 8.95602V9.25882C40.2793 9.75471 40.1805 10.2155 40.0445 10.6412C39.9085 11.0668 39.7285 11.4398 39.5047 11.7602C39.2853 12.0761 39.0176 12.3219 38.7017 12.4974C38.3857 12.673 38.0171 12.7607 37.5958 12.7607C37.1526 12.7607 36.7576 12.6708 36.4109 12.4908C36.0687 12.3109 35.779 12.0586 35.542 11.7339C35.3095 11.4091 35.1317 11.0273 35.0089 10.5885C34.886 10.1497 34.8246 9.67133 34.8246 9.1535ZM36.7203 9.01527V9.1535C36.7203 9.44752 36.7423 9.72179 36.7862 9.97632C36.8344 10.2308 36.9112 10.4568 37.0165 10.6543C37.1262 10.8474 37.2667 10.9988 37.4378 11.1085C37.6134 11.2138 37.8262 11.2665 38.0763 11.2665C38.4011 11.2665 38.6688 11.1941 38.8794 11.0493C39.09 10.9001 39.2502 10.696 39.3599 10.4371C39.474 10.1782 39.5398 9.87977 39.5574 9.54187V8.67956C39.5442 8.40309 39.5047 8.15515 39.4389 7.93573C39.3775 7.71192 39.2853 7.52103 39.1624 7.36305C39.044 7.20507 38.8948 7.08219 38.7148 6.99443C38.5393 6.90666 38.3309 6.86278 38.0895 6.86278C37.8437 6.86278 37.6331 6.91983 37.4576 7.03392C37.282 7.14363 37.1394 7.29503 37.0297 7.48812C36.9244 7.68121 36.8454 7.9094 36.7927 8.1727C36.7445 8.43162 36.7203 8.71247 36.7203 9.01527Z" fill="#0A66C2"/>
</svg>