<svg xmlns="http://www.w3.org/2000/svg" width="13" height="13" viewBox="0 0 13 13" fill="none">
  <path d="M4.82715 6.71501C4.82715 6.71501 5.15196 5.70898 6.83887 5.70898C8.52578 5.70898 8.84473 6.71501 8.84473 6.71501V12.7065H4.82715V6.71501Z" fill="#666666"/>
  <circle cx="6.83594" cy="2.69922" r="2.00879" fill="#666666"/>
  <path d="M9.85156 8.21677C9.85156 8.21677 10.095 7.46289 11.3591 7.46289C12.6232 7.46289 12.8622 8.21677 12.8622 8.21677V12.7065H9.85156V8.21677Z" fill="#666666"/>
  <circle cx="11.3569" cy="5.20746" r="1.50531" fill="#666666"/>
  <path d="M0.80957 8.21677C0.80957 8.21677 1.05297 7.46289 2.31708 7.46289C3.58119 7.46289 3.8202 8.21677 3.8202 8.21677V12.7065H0.80957V8.21677Z" fill="#666666"/>
  <circle cx="2.31488" cy="5.20746" r="1.50531" fill="#666666"/>
</svg>