<svg xmlns="http://www.w3.org/2000/svg" width="30" height="24" viewBox="0 0 30 24" fill="none">
  <path d="M1.99053 13.2793L0.0136719 13.2795V11.6808L11.0101 4.06934L22.0099 11.6808V13.2793H20.0296V23.25H13.0286V17.2741H9.14681V23.25H1.99053V13.2793Z" fill="#666666"/>
  <path fill-rule="evenodd" clip-rule="evenodd" d="M21.832 4.2793C20.0177 4.2793 18.5469 5.75011 18.5469 7.56445C18.5469 9.37879 20.0177 10.8496 21.832 10.8496C23.6464 10.8496 25.1172 9.37879 25.1172 7.56445C25.1172 5.75011 23.6464 4.2793 21.832 4.2793ZM14.5469 7.56445C14.5469 3.54097 17.8086 0.279297 21.832 0.279297C25.8555 0.279297 29.1172 3.54097 29.1172 7.56445C29.1172 11.5879 25.8555 14.8496 21.832 14.8496C17.8086 14.8496 14.5469 11.5879 14.5469 7.56445Z" fill="#CC1016"/>
</svg>