<svg xmlns="http://www.w3.org/2000/svg" width="21" height="19" viewBox="0 0 21 19" fill="none">
  <path fill-rule="evenodd" clip-rule="evenodd" d="M5.72997 4.30029C5.73111 4.22437 5.73442 4.14192 5.74084 4.054C5.77204 3.62675 5.87906 3.04129 6.19305 2.44697C6.86684 1.17162 8.28428 0.217773 10.8285 0.217773C13.3726 0.217773 14.7901 1.17162 15.4639 2.44697C15.7779 3.04129 15.8849 3.62675 15.9161 4.054C15.9225 4.14192 15.9258 4.22437 15.9269 4.30029H20.7607V8.29004C20.7607 9.94689 19.4176 11.29 17.7607 11.29H3.74609C2.08924 11.29 0.746094 9.94689 0.746094 8.29004V4.30029H5.72997ZM13.9264 4.30029C13.9255 4.27618 13.9242 4.2504 13.9222 4.22316C13.9073 4.01865 13.8569 3.76175 13.7259 3.51373C13.5096 3.10437 12.8865 2.37352 10.8285 2.37352C8.77044 2.37352 8.14728 3.10437 7.93101 3.51373C7.79997 3.76175 7.7496 4.01865 7.73467 4.22316C7.73268 4.2504 7.73136 4.27618 7.73055 4.30029H13.9264Z" fill="#666666"/>
  <path d="M0.746094 11.29C0.746094 11.29 1.35386 12.3321 10.7534 12.3321C20.153 12.3321 20.7607 11.29 20.7607 11.29V15.2798C20.7607 16.9366 19.4176 18.2798 17.7607 18.2798H3.74609C2.08924 18.2798 0.746094 16.9366 0.746094 15.2798V11.29Z" fill="#666666"/>
</svg>