<svg xmlns="http://www.w3.org/2000/svg" width="28" height="31" viewBox="0 0 28 31" fill="none">
  <path d="M25.3343 15.1454L19.6985 9.50957C18.5907 8.40023 17.7566 7.048 17.2625 5.56015L16.5562 3.4413C16.2911 2.65307 15.7855 1.96776 15.1108 1.4817C14.436 0.995634 13.6258 0.733265 12.7942 0.731472C12.2736 0.729575 11.7578 0.830226 11.2762 1.02768C10.7945 1.22513 10.3565 1.51551 9.98708 1.88225C9.61767 2.24899 9.3241 2.6849 9.12315 3.16509C8.9222 3.64529 8.8178 4.16036 8.81591 4.6809V6.29526C8.81913 7.69097 9.0429 9.0774 9.47896 10.4032L10.0988 12.2626H3.2233C2.41286 12.2626 1.63562 12.5846 1.06255 13.1577C0.489483 13.7307 0.167538 14.508 0.167538 15.3184C0.169527 15.8165 0.290995 16.3068 0.521741 16.7483C0.752487 17.1897 1.08578 17.5693 1.49362 17.8553C1.0854 18.1341 0.751291 18.5082 0.520226 18.9452C0.28916 19.3822 0.168103 19.8689 0.167538 20.3633C0.156084 20.9723 0.325184 21.571 0.65352 22.0841C0.981856 22.5971 1.45473 23.0014 2.01252 23.2461C1.75343 23.6826 1.61421 24.1799 1.60893 24.6875C1.60768 25.4688 1.90578 26.221 2.44195 26.7893C2.97812 27.3576 3.71164 27.699 4.49173 27.7432V27.945C4.49173 28.7555 4.81367 29.5327 5.38674 30.1058C5.9598 30.6788 6.73705 31.0008 7.54749 31.0008H18.3435C20.1338 30.9992 21.8996 30.5849 23.5037 29.79L23.9506 29.5594H27.5541V15.1454H25.3343ZM24.6713 26.6766H23.2299L22.1777 27.2099C20.971 27.8032 19.645 28.1138 18.3003 28.118H8.41232C8.09068 28.1308 7.77401 28.0356 7.51279 27.8475C7.25156 27.6594 7.0608 27.3893 6.97093 27.0802L6.61058 25.8262L5.38539 25.2352C5.1032 25.1203 4.8647 24.9188 4.70413 24.6599C4.54357 24.4009 4.46921 24.0977 4.49173 23.7938L4.73676 22.3524L3.6413 21.2858C3.40297 21.053 3.25262 20.7449 3.21583 20.4138C3.17904 20.0827 3.25808 19.749 3.43951 19.4696L4.39083 17.8985L3.33861 16.313C3.2784 16.2398 3.23354 16.1553 3.20669 16.0644C3.17983 15.9735 3.17154 15.8782 3.1823 15.784C3.19306 15.6899 3.22265 15.5989 3.26931 15.5164C3.31598 15.4339 3.37876 15.3617 3.45392 15.304C3.59078 15.19 3.76632 15.1332 3.944 15.1454H14.1058L12.2176 9.49516C11.8733 8.46347 11.6981 7.38289 11.6987 6.29526V4.69531C11.706 4.4109 11.8222 4.14015 12.0234 3.93897C12.2246 3.7378 12.4953 3.62156 12.7798 3.61426C13.0058 3.61443 13.2261 3.68544 13.4096 3.8173C13.5932 3.94916 13.7308 4.13524 13.8031 4.34938L14.5815 6.49706C15.2034 8.39236 16.254 10.1187 17.6517 11.5419L24.138 18.0282H24.6713V26.6766Z" fill="#6A6A6A"/>
</svg>