<svg xmlns="http://www.w3.org/2000/svg" width="25" height="25" viewBox="0 0 25 25" fill="none">
  <path d="M19.7855 0.366211H4.35698C1.99122 0.369023 0.0741016 2.28614 0.0712891 4.65191V20.0805C0.0741016 22.4462 1.99122 24.3633 4.35698 24.3662H19.7855C22.1513 24.3633 24.0684 22.4462 24.0712 20.0805V4.65191C24.0684 2.28614 22.1513 0.369023 19.7855 0.366211ZM16.357 13.2233H12.9284V16.6519C12.9284 17.1253 12.5447 17.5091 12.0713 17.5091C11.5979 17.5091 11.2141 17.1253 11.2141 16.6519V13.2233H7.78557C7.31217 13.2233 6.92841 12.8396 6.92841 12.3662C6.92841 11.8928 7.31217 11.509 7.78557 11.509H11.2142V8.08049C11.2142 7.60709 11.5979 7.22333 12.0713 7.22333C12.5447 7.22333 12.9284 7.60709 12.9284 8.08049V11.5091H16.357C16.8304 11.5091 17.2142 11.8928 17.2142 12.3662C17.2142 12.8396 16.8304 13.2233 16.357 13.2233Z" fill="#5B5B5B" fill-opacity="0.6"/>
</svg>