<svg xmlns="http://www.w3.org/2000/svg" width="31" height="24" viewBox="0 0 31 24" fill="none">
  <path d="M30.4017 10.4501L23.8742 20.3617H20.4901L26.1539 11.8661H9.16262C8.43368 11.8511 7.70893 11.9798 7.02975 12.2449C6.35058 12.5101 5.73029 12.9064 5.20433 13.4113C4.67837 13.9163 4.25705 14.5199 3.96442 15.1876C3.67179 15.8554 3.51359 16.5743 3.49887 17.3033V17.5298C3.49564 18.1256 3.58644 18.7181 3.7679 19.2856L5.08472 23.1936H2.08293L1.0493 20.0502C0.795692 19.205 0.666899 18.3273 0.666992 17.4449C0.689378 15.2065 1.59432 13.0673 3.18514 11.4924C4.77596 9.9175 6.92408 9.03409 9.16262 9.03421H26.1539L20.4901 0.538574H23.8742L30.4017 10.4501Z" fill="#6A6A6A"/>
</svg>