<svg xmlns="http://www.w3.org/2000/svg" width="15" height="14" viewBox="0 0 15 14" fill="none">
  <path fill-rule="evenodd" clip-rule="evenodd" d="M9.6473 9.98914C8.71077 10.7384 7.52278 11.1864 6.23015 11.1864C3.20678 11.1864 0.755859 8.73546 0.755859 5.71209C0.755859 2.68872 3.20678 0.237793 6.23015 0.237793C9.25352 0.237793 11.7044 2.68872 11.7044 5.71209C11.7044 7.00456 11.2565 8.19242 10.5075 9.12891L13.9727 12.7182C14.2103 12.9557 14.2103 13.3408 13.9727 13.5784C13.7352 13.8159 13.3501 13.8159 13.1125 13.5784L9.6473 9.98914ZM1.97237 5.71209C1.97237 3.36058 3.87864 1.4543 6.23015 1.4543C8.58166 1.4543 10.4879 3.36058 10.4879 5.71209C10.4879 6.85946 10.0341 7.90084 9.29614 8.66649C9.27557 8.68235 9.25579 8.69971 9.23693 8.71857C9.21806 8.73744 9.20069 8.75724 9.18482 8.77782C8.41914 9.51593 7.37766 9.96987 6.23015 9.96987C3.87864 9.96987 1.97237 8.0636 1.97237 5.71209Z" fill="#5F6163"/>
</svg>