<svg xmlns="http://www.w3.org/2000/svg" width="38" height="38" viewBox="0 0 38 38" fill="none">
  <circle opacity="0.8" cx="18.9325" cy="18.7753" r="17.8124" fill="#323232" stroke="#6A6A6A"/>
  <path d="M20.1884 8.47754V29.0719L16.0427 24.9261C15.5205 24.4039 14.8122 24.1105 14.0737 24.1105H11.1782C9.64027 24.1105 8.39355 22.8638 8.39355 21.3259V16.2235C8.39355 14.6856 9.64027 13.4389 11.1782 13.4389H14.0737C14.8122 13.4389 15.5205 13.1455 16.0427 12.6233L20.1884 8.47754Z" fill="white"/>
  <path fill-rule="evenodd" clip-rule="evenodd" d="M21.835 14.895C22.0418 14.5709 22.4722 14.4758 22.7963 14.6827C24.1446 15.5431 25.0411 17.0542 25.0411 18.7753C25.0411 20.4963 24.1446 22.0074 22.7963 22.8679C22.4722 23.0747 22.0418 22.9796 21.835 22.6555C21.6282 22.3314 21.7232 21.901 22.0473 21.6942C23.0117 21.0787 23.6488 20.0011 23.6488 18.7753C23.6488 17.5494 23.0117 16.4718 22.0473 15.8563C21.7232 15.6495 21.6282 15.2191 21.835 14.895Z" fill="white"/>
  <path fill-rule="evenodd" clip-rule="evenodd" d="M24.3886 11.2518C24.6028 10.9325 25.0353 10.8473 25.3546 11.0615C27.8361 12.7262 29.4718 15.5595 29.4718 18.7752C29.4718 21.9908 27.8361 24.8241 25.3546 26.4889C25.0353 26.7031 24.6028 26.6179 24.3886 26.2986C24.1744 25.9793 24.2596 25.5468 24.5789 25.3326C26.6914 23.9154 28.0795 21.5073 28.0795 18.7752C28.0795 16.0431 26.6914 13.6349 24.5789 12.2177C24.2596 12.0035 24.1744 11.571 24.3886 11.2518Z" fill="white"/>
</svg>